<svg width="30" height="30" viewBox="0 0 30 30" xmlns="http://www.w3.org/2000/svg">
  <path fill-rule="evenodd" clip-rule="evenodd" d="M15 30C23.2843 30 30 23.2843 30 15C30 6.71573 23.2843 0 15 0C6.71573 0 0 6.71573 0 15C0 23.2843 6.71573 30 15 30ZM14.0852 7.22677C14.5216 6.93068 15.0996 6.92411 15.5427 7.20959L22.4183 11.6399C22.7816 11.8738 23 12.2695 23 12.6934V17.3819C23 17.8063 22.781 18.202 22.4178 18.4359L15.6496 22.7904C15.2159 23.0699 14.6524 23.0699 14.2186 22.7904L7.58218 18.5183C7.21845 18.2843 7 17.8887 7 17.4643V12.6924C7 12.2786 7.20755 11.892 7.55571 11.6556L14.0852 7.22677ZM18.0966 14.0142L20.5981 12.3786L15.7358 9.0852L15.7508 12.3528L18.0966 14.0142ZM14.0385 12.2861V9.08823L9.23687 12.3574L11.6346 13.9233L14.0385 12.2861ZM10.1314 14.9459L8.57945 13.9334V16.0035L10.1314 14.9459ZM9.2379 17.5891L14.0795 20.7511V17.5259L11.6564 15.9429L9.2379 17.5891ZM14.7276 13.852L13.1601 14.9197L14.9351 16.0793L16.5535 15.0207L14.7276 13.852ZM15.7897 17.5249V20.7511L20.5987 17.6098L18.1055 16.0136L15.7897 17.5249ZM19.646 15.0061L21.2898 16.0581V13.9324L19.646 15.0061Z" fill="#4c5b7d"/>
</svg>
